# xmcd
#
# Track frame offsets:
#	150
#	18700
#	29817
#	44815
#	56612
#	72032
#	82812
#	98545
#	111390
#	123405
#	134577
#	149977
#	170970
#	184360
#
# Disc length: 2734 seconds
#
# Revision: 6
# Processed by: cddbd v1.5.2PL0 Copyright (c) Steve Scherf et al.
# Submitted via: audiograbber 1.80.04
#
DISCID=e00aac0e
DTITLE=Vários Artistas - 30 Anos de Jovem Guarda 5 - Splish Splash
DYEAR=1995
DGENRE=Rock Nacional
TTITLE0=Os Vips - A Volta
TTITLE1=Silvinha - Splish Splash
TTITLE2=Wanderléa - Eu Já Nem Sei
TTITLE3=Golden Boys - Alguém Na Multidão
TTITLE4=Wanderléa Cardoso - O Bom Rapaz
TTITLE5=Lilian - Lacinhos Cor-de-Rosa (Pink Shoe Laces)
TTITLE6=Deny and Dino - O Ciúme
TTITLE7=The Fevers - Wooly Bully
TTITLE8=Jerry Adriani - Namoradinha de Um Amigo Meu
TTITLE9=Marcos Roberto - Vá Embora Daqui
TTITLE10=Renato E Seus Blue Caps - O Escândalo (Shame And Scandal In The Family
TTITLE10=)
TTITLE11=Erasmo Carlos - Sentado À Beira do Caminho
TTITLE12=Dori Edson - Veja Se Me Esqueçe
TTITLE13=Todo o Elenco de 30 Anos de Jovem Guarda - Quero Que Vá Tudo Pro Infer
TTITLE13=no
EXTD=
EXTT0=Os Vips
EXTT1=(Splish Splash]\nSilvinha
EXTT2=Wanderl a
EXTT3=Golden Boys
EXTT4=Wanderley Cardoso
EXTT5=(Pink Shoe Laces]\nLilian
EXTT6=Denny and Dino
EXTT7=(Wooly Bully]\nThe Fevers
EXTT8=Jerry Adriani
EXTT9=Marcos Roberto
EXTT10=(Shame And Scandal In The Family]\nRenato e seus Blue Caps
EXTT11=Erasmo Carlos
EXTT12=Dori Edson
EXTT13=Todo O Elenco
PLAYORDER=
